<svg id="Layer_1" data-name="Layer 1" xmlns="http://www.w3.org/2000/svg" width="16" height="15.92" viewBox="0 0 16 15.92"><title>icon-mask</title><circle cx="8" cy="7.96" r="2"/><path d="M15.75,8.48l.12-.15a.5.5,0,0,0,0-.61l-.12-.16a14.48,14.48,0,0,0-2.23-2.2,12.62,12.62,0,0,0-1.28-.9l2-2c.32.24.63.48.95.75a.5.5,0,0,0,.65-.76c-.43-.36-.86-.69-1.29-1h0l0,0A15,15,0,0,0,12.18.11a.5.5,0,1,0-.42.91,13.42,13.42,0,0,1,1.61.91l-2,2A7.7,7.7,0,0,0,8,3.11a7.68,7.68,0,0,0-3.33.83l-2-2A13.4,13.4,0,0,1,4.19,1,.5.5,0,0,0,3.76.11,15,15,0,0,0,1.52,1.44l0,0h0c-.44.31-.88.64-1.32,1a.5.5,0,1,0,.65.76c.32-.28.65-.53,1-.77l2,2a12.62,12.62,0,0,0-1.31.92A14.4,14.4,0,0,0,.2,7.56l-.12.15a.5.5,0,0,0,0,.61l.12.15a14.47,14.47,0,0,0,2.23,2.21,12.64,12.64,0,0,0,1.28.9l-2,2c-.32-.24-.63-.48-1-.75a.5.5,0,1,0-.65.76,16.34,16.34,0,0,0,3.61,2.38A.5.5,0,0,0,4.18,15a13.4,13.4,0,0,1-1.6-.9l2-2A7.69,7.69,0,0,0,8,12.93a7.71,7.71,0,0,0,3.39-.86l2,2a13.34,13.34,0,0,1-1.64.92A.5.5,0,0,0,12,16a.5.5,0,0,0,.21,0,15,15,0,0,0,2.3-1.37l0,0h0c.42-.3.84-.62,1.26-1a.5.5,0,1,0-.65-.76c-.31.26-.61.5-.92.73l-2-2a12.64,12.64,0,0,0,1.25-.88A14.48,14.48,0,0,0,15.75,8.48ZM8,11.93a8.11,8.11,0,0,1-4.92-2A14,14,0,0,1,1.11,8,14,14,0,0,1,3.05,6.14,8.11,8.11,0,0,1,8,4.11a8.1,8.1,0,0,1,4.92,2A14.07,14.07,0,0,1,14.84,8,14,14,0,0,1,12.9,9.9,8.1,8.1,0,0,1,8,11.93Z" transform="translate(0.03 -0.06)"/></svg>