<svg id="Layer_1" data-name="Layer 1" xmlns="http://www.w3.org/2000/svg" width="500" height="500" viewBox="0 0 500 500"><title>icon</title><circle cx="250" cy="250" r="250" fill="#ff8875"/><circle cx="250" cy="250" r="205" fill="#d3eee4"/><circle cx="250" cy="250" r="151" fill="#ff8875"/><path d="M212,424c-3.11-.68-6.26-1.46-9.36-2.31L210.06,395c2.62.72,5.29,1.38,7.91,2Zm82.79-1.68-7-26.81c2.57-.67,5.17-1.42,7.72-2.23l.51-.16,3.83,13.41,4.83,12.89q-.38.15-.78.27C300.94,420.64,297.87,421.53,294.84,422.32ZM130.19,381.77c-2.37-2.16-4.71-4.4-6.95-6.66L143,355.62c1.89,1.92,3.87,3.81,5.87,5.63ZM375,376.87l-19.47-19.72c1.93-1.91,3.83-3.89,5.63-5.87l20.5,18.64C379.49,372.28,377.25,374.62,375,376.87ZM80.43,304.28l-.08-.25c-1-3-1.83-6-2.62-9l26.81-7c.66,2.54,1.4,5.09,2.2,7.58Zm341.17-6.81-26.71-7.4c.72-2.62,1.39-5.28,2-7.91l27.06,6C423.24,291.23,422.46,294.37,421.6,297.47ZM103.07,218.14,76,212.24c.69-3.14,1.46-6.29,2.31-9.37L105,210.24C104.3,212.83,103.64,215.49,103.07,218.14Zm292.42-5.84c-.67-2.58-1.43-5.21-2.26-7.82l-.15-.47,26.39-8.48.18.58c1,3,1.87,6.16,2.67,9.23ZM138.69,149l-20.54-18.61c2.14-2.37,4.39-4.71,6.66-7l19.49,19.7C142.39,145,140.5,147,138.69,149Zm218.16-4.69c-1.9-1.92-3.88-3.81-5.88-5.62l18.59-20.55c2.37,2.15,4.72,4.38,7,6.65ZM204.09,106.9l-8.48-26.39.43-.14c2.92-.93,5.89-1.79,8.83-2.56l7,26.81c-2.48.65-5,1.38-7.48,2.17ZM289.67,105c-2.61-.72-5.27-1.37-7.91-1.94L287.64,76c3.12.68,6.27,1.45,9.36,2.3Z" fill="#18252f"/><g id="_Group_" data-name="&lt;Group&gt;"><path d="M250,172.55C323.91,172.55,383.8,250,383.8,250S323.91,327.5,250,327.5,116.15,250,116.15,250,176.07,172.55,250,172.55ZM313.41,250A63.44,63.44,0,1,0,250,313.46,63.42,63.42,0,0,0,313.41,250Z" fill="#fff"/><path d="M250,186.59A63.44,63.44,0,1,1,186.54,250,63.42,63.42,0,0,1,250,186.59ZM270,250a20,20,0,1,0-20,20A20,20,0,0,0,270,250Z" fill="#06c7ca"/><path d="M250,230a20,20,0,1,1-20,20A20,20,0,0,1,250,230Z" fill="#18252f"/><path d="M250,332.12c-31.28,0-65-13.75-97.51-39.75a260.15,260.15,0,0,1-40-39.52L110.31,250l2.19-2.83a260,260,0,0,1,40-39.52c32.52-26,66.24-39.75,97.51-39.75s65,13.75,97.53,39.75a259.93,259.93,0,0,1,40,39.52l2.18,2.83-2.18,2.83a260,260,0,0,1-40,39.52C315,318.37,281.27,332.12,250,332.12ZM122.11,250a264.92,264.92,0,0,0,36.29,35.26c21.48,17.15,54.81,37.59,91.57,37.59s70.11-20.44,91.59-37.59A264.56,264.56,0,0,0,377.84,250a264.63,264.63,0,0,0-36.28-35.27c-21.48-17.15-54.8-37.59-91.59-37.59s-70.09,20.44-91.57,37.59A264.9,264.9,0,0,0,122.11,250Z" fill="#18252f"/><path d="M250,318.08A68.05,68.05,0,1,1,318,250,68.13,68.13,0,0,1,250,318.08Zm0-126.87A58.82,58.82,0,1,0,308.79,250,58.88,58.88,0,0,0,250,191.21Z" fill="#18252f"/><path d="M250,274.66A24.63,24.63,0,1,1,274.61,250,24.65,24.65,0,0,1,250,274.66Zm0-40a15.4,15.4,0,1,0,15.4,15.4A15.4,15.4,0,0,0,250,234.63Z" fill="#18252f"/></g></svg>